<?xml version="1.0" encoding="UTF-8" standalone="no"?>
<svg
   xmlns:dc="http://purl.org/dc/elements/1.1/"
   xmlns:cc="http://creativecommons.org/ns#"
   xmlns:rdf="http://www.w3.org/1999/02/22-rdf-syntax-ns#"
   xmlns:svg="http://www.w3.org/2000/svg"
   xmlns="http://www.w3.org/2000/svg"
   xmlns:sodipodi="http://sodipodi.sourceforge.net/DTD/sodipodi-0.dtd"
   xmlns:inkscape="http://www.inkscape.org/namespaces/inkscape"
   viewBox="0 0 324.90673 322.70349"
   width="324.90674"
   height="322.70349"
   version="1.1"
   id="svg126"
   sodipodi:docname="ScrumOrg.svg"
   inkscape:version="1.0.2 (e86c870879, 2021-01-15, custom)">
  <metadata
     id="metadata132">
    <rdf:RDF>
      <cc:Work
         rdf:about="">
        <dc:format>image/svg+xml</dc:format>
        <dc:type
           rdf:resource="http://purl.org/dc/dcmitype/StillImage" />
        <dc:title></dc:title>
      </cc:Work>
    </rdf:RDF>
  </metadata>
  <defs
     id="defs130" />
  <sodipodi:namedview
     pagecolor="#ffffff"
     bordercolor="#666666"
     borderopacity="1"
     objecttolerance="10"
     gridtolerance="10"
     guidetolerance="10"
     inkscape:pageopacity="0"
     inkscape:pageshadow="2"
     inkscape:window-width="2496"
     inkscape:window-height="1558"
     id="namedview128"
     showgrid="false"
     fit-margin-top="10"
     fit-margin-left="10"
     fit-margin-right="10"
     fit-margin-bottom="10"
     inkscape:zoom="1.173426"
     inkscape:cx="606.06691"
     inkscape:cy="161.35209"
     inkscape:window-x="-11"
     inkscape:window-y="-11"
     inkscape:window-maximized="1"
     inkscape:current-layer="svg126" />
  <g
     id="g172"
     transform="translate(-12.20811,-38.647904)">
    <path
       d="M 95.92,193.77 A 110.9,110.9 0 0 1 110.19,159 122.68,122.68 0 0 1 133.72,131.52 120.51,120.51 0 0 0 115,152 a 95.34,95.34 0 0 1 13.09,-14.78 97.39,97.39 0 0 1 16,-11.87 77,77 0 0 1 -6.39,5.65 c -2.33,2 -4.32,4 -4.63,5.24 A 130.79,130.79 0 0 0 103.3,175.76 122,122 0 0 0 91,223.84 30.42,30.42 0 0 1 91.46,207 c 1.41,-4.74 3.39,-8.76 4.46,-13.23"
       data-darkreader-inline-fill=""
       fill="#9cb2c5"
       id="path20" />
    <path
       d="m 178,111 c -3.17,1 -6.22,2.08 -9.2,3.25 A 53,53 0 0 1 178,111"
       data-darkreader-inline-fill=""
       fill="#9cb2c5"
       id="path22" />
    <path
       d="m 216.75,328.48 c 3.4,-0.37 6.78,-0.89 10,-1.41 a 56.36,56.36 0 0 1 -10,1.41"
       data-darkreader-inline-fill=""
       fill="#9cb2c5"
       id="path24" />
    <path
       d="m 101.17,236.71 1.49,5.55 a 114.25,114.25 0 0 0 14.57,41.22 133.08,133.08 0 0 1 -11.13,-22.35 74.46,74.46 0 0 1 -4.93,-24.42"
       data-darkreader-inline-fill=""
       fill="#9cb2c5"
       id="path26" />
    <path
       d="m 103.5,221.16 a 82.53,82.53 0 0 1 10.83,-40.4 91.54,91.54 0 0 0 -10.83,40.4"
       data-darkreader-inline-fill=""
       fill="#9cb2c5"
       id="path28" />
    <path
       d="m 287.39,267.7 c -0.28,-0.1 -0.36,-0.41 -0.35,-0.78 a 2.41,2.41 0 0 0 0.14,-1 93.07,93.07 0 0 0 7,-12.21 24.35,24.35 0 0 1 -0.6,3.48 35.75,35.75 0 0 1 -3.27,4.93 22.4,22.4 0 0 0 -2.9,5.55"
       data-darkreader-inline-fill=""
       fill="#9cb2c5"
       id="path30" />
    <path
       d="m 213,328.71 -0.36,0.15 c -1.17,0.08 -2.33,0.16 -3.48,0.2 l -0.42,-0.1 c 1.42,-0.1 2.83,-0.19 4.26,-0.25"
       data-darkreader-inline-fill=""
       fill="#9cb2c5"
       id="path32" />
    <path
       d="m 284.05,272.67 a 2.84,2.84 0 0 0 -1.59,-0.37 c 1.65,-2 3.22,-4.14 4.69,-6.31 a 8.93,8.93 0 0 0 -0.11,0.93 c -0.53,1.72 -2.47,3.74 -3,5.75"
       data-darkreader-inline-fill=""
       fill="#9cb2c5"
       id="path34" />
    <path
       d="m 235.08,303.26 c -1.54,0.49 -2.65,1.91 -3.34,2.38 -4.3,0.29 -8.54,0.31 -13.44,0.27 -0.74,0.36 -2.33,0.49 -3.83,1.11 -0.92,-0.42 -1.89,-0.76 -2.91,-1.11 a 88.46,88.46 0 0 0 32.44,-5.79 52.1,52.1 0 0 1 -8.89,3.14"
       data-darkreader-inline-fill=""
       fill="#9cb2c5"
       id="path36" />
    <path
       d="m 185.66,127.71 c 8.17,-2.64 17.51,-3.45 26.6,-3.1 9.09,0.35 18,1.68 26.48,2.55 -9.22,-3.66 -21.05,-5.72 -31,-6.25 -9.95,-0.53 -17.88,-0.14 -19.95,-2.14 -2.07,-2 5.08,-4 15,-4.38 a 102.23,102.23 0 0 1 15.83,0.79 c 5.31,0.64 10.36,1.64 14.45,2.42 -2.07,-0.93 -2.07,-0.93 -4.17,-1.8 2.11,0.87 4.17,1.77 6.21,1.66 a 76.18,76.18 0 0 0 -8.12,-3.08 c -2.94,-1 -5.7,-1.89 -6.91,-2.75 1.39,-0.29 2.78,-0.52 4.19,-0.75 -5.64,-2.48 -14.31,-4 -23.14,-4.25 -8.83,-0.25 -17.76,0.54 -24.3,0.64 a 165,165 0 0 1 48.82,1.7 133.13,133.13 0 0 1 48.45,19.64 119.61,119.61 0 0 1 37.36,39.45 113.45,113.45 0 0 1 15.33,51.83 132.21,132.21 0 0 1 -40.59,104.89 77.6,77.6 0 0 1 -13.65,9.11 111.06,111.06 0 0 1 -18.62,7.92 c -20.16,8.08 -42.57,10.92 -64.61,8.93 -23.44,-3 -45.41,-13.57 -63,-29.31 -17.59,-15.74 -31.17,-36.74 -38.7,-60.63 -1.55,-4.75 -1.72,-10.82 -0.7,-12.61 0.5,-0.9 1.25,-0.76 2.26,1 1.01,1.76 2.31,5.2 4.39,10.72 a 146.36,146.36 0 0 0 31.71,48.61 c -1.32,-0.29 -3.47,-2.25 -5.62,-4.57 a 81.79,81.79 0 0 0 -6.12,-6.35 101.65,101.65 0 0 0 13.06,15.92 100,100 0 0 0 15.89,12.83 124.31,124.31 0 0 1 -22.1,-18.35 127,127 0 0 0 29.48,23 115.37,115.37 0 0 0 36.65,13.16 c 4.69,0.9 8.95,2.71 13.92,3.92 a 32,32 0 0 0 17.41,-0.3 126,126 0 0 1 -50.3,-10.38 134.87,134.87 0 0 1 -42.27,-28.91 0.79,0.79 0 0 0 0.2,0 117.34,117.34 0 0 1 -24.72,-36 c 2,4.11 4.44,8.12 6.26,11.73 -9.64,-19.2 -14.86,-39.9 -14.68,-60.83 a 139.52,139.52 0 0 0 10.82,43.15 124.82,124.82 0 0 0 25,37.61 116.65,116.65 0 0 0 37.18,25.85 107.49,107.49 0 0 0 43.2,8.94 c -8.08,-1.41 -17.37,-2.37 -26.28,-4.54 -8.91,-2.17 -17.29,-5.49 -22.77,-10.06 a 118.07,118.07 0 0 0 76.94,10.95 l -5.69,1.71 a 77.68,77.68 0 0 0 25,-6.27 136,136 0 0 0 22.66,-12.59 c 1.26,-0.83 2.51,-1.67 3.75,-2.56 l -3.75,2.56 a 118,118 0 0 1 -42,17.09 c 6.54,-2 13.42,-4.15 21.47,-7.34 -4.67,1 -11.07,2.9 -17.61,4.15 a 109,109 0 0 1 -25.77,3.41 89.55,89.55 0 0 0 36.84,-9.44 c -16.84,5.45 -35.26,7.74 -52.69,5 a 106.4,106.4 0 0 0 28.75,-1 106.39,106.39 0 0 0 45.68,-16.52 l -1.53,1.13 c 1.06,-0.69 2.08,-1.44 3.1,-2.17 a 104.61,104.61 0 0 0 15.06,-12.48 62.75,62.75 0 0 0 10,-14.2 l 1.61,-2.38 c -0.64,1.76 -0.76,2.79 1.43,0 a 72.38,72.38 0 0 0 11,-20.84 c 2.78,-7.72 4.82,-15.87 7,-24.39 1.13,-4.49 1.4,-10.76 0.84,-17.42 a 5.38,5.38 0 0 0 -0.36,-3.6 c -0.16,-1.43 -0.36,-2.87 -0.58,-4.3 a 59.71,59.71 0 0 0 -1.92,-10.36 c 0.69,3.36 1.38,6.84 1.92,10.36 l 0.4,3.94 a 8.94,8.94 0 0 1 -1.19,-3.72 108.62,108.62 0 0 1 -3.31,36.41 116,116 0 0 1 -15.23,33.94 c 0.5,-1.46 1.32,-3.45 1.55,-4.33 -0.95,2.28 -2,4.5 -3.16,6.71 a 121.19,121.19 0 0 1 -15.79,18.47 29.08,29.08 0 0 0 3.95,-5.44 114.49,114.49 0 0 1 -27.71,20.22 112.31,112.31 0 0 1 -32.74,11 108.2,108.2 0 0 1 -62.25,-11.4 85.16,85.16 0 0 0 33.5,12.37 A 104.69,104.69 0 0 1 152.27,314.77 99.47,99.47 0 0 1 118.89,279 c 4.44,4.23 10.21,9.86 14.22,11.06 0.56,-0.82 -5.17,-8.89 -1.15,-4.71 7.59,7.27 14.24,13.05 20.34,17.07 6.1,4.02 11.64,6.08 16.56,5.2 1,-0.39 -2.68,-4.33 -5.24,-8.12 -2.56,-3.79 -4.21,-7.22 -1.26,-5.82 a 104.84,104.84 0 0 0 23.14,9.92 59.41,59.41 0 0 0 8.8,2.64 c 0.37,0.2 1.09,0 2,-0.23 10.9,1.84 21.39,1.13 27.18,0.61 2.16,-0.15 4.3,-0.44 6.43,-0.77 a 10,10 0 0 1 3.09,0.61 c 1.23,-0.75 2.47,-1.43 3.71,-2 a 78.66,78.66 0 0 0 16.14,-6.05 71.23,71.23 0 0 0 8.94,-3.74 c -0.28,-0.28 -1,-0.4 -0.71,-1.06 a 81.48,81.48 0 0 0 16.1,-14.12 62,62 0 0 1 6.69,-5 c 0.92,-4.22 4.09,-9.78 7,-16.23 2.91,-6.45 5.45,-13.68 6.26,-19.91 H 297 a 88.49,88.49 0 0 0 1.41,-19 c 0.28,-1.07 0.6,-2.11 1,-3.1 -0.69,-1.55 -0.91,-3.22 -1.3,-4 -0.22,-5.16 -0.47,-9.6 -1,-14.09 -0.51,-0.7 -2,-1.83 -2.58,-3.42 a 58.26,58.26 0 0 0 -3.71,-9.16 97.45,97.45 0 0 0 -5.19,-10.17 95.3,95.3 0 0 0 -25.92,-28.77 2.86,2.86 0 0 1 0.27,-1.61 c -2.1,-0.49 -4.32,-2.39 -6.14,-2.88 0.39,0 0.69,-0.09 0.77,-0.37 a 26.13,26.13 0 0 1 -5.94,-2.78 37.31,37.31 0 0 0 -5.32,-3.17 26.43,26.43 0 0 0 -3.65,-0.48 c -0.56,-0.24 -1.12,-0.44 -1.68,-0.67 -5.3,-4.1 -11.81,-4.6 -18.73,-5.23 a 95,95 0 0 0 -21.22,-1.2 c -5.65,0.42 -8.12,-0.59 -12.3,-0.55"
       data-darkreader-inline-fill=""
       fill="#9cb2c5"
       id="path38" />
    <path
       d="m 294.88,252.17 a 90.11,90.11 0 0 0 5.87,-17.63 c -0.9,6.58 -1.63,12.79 -5.87,17.63"
       data-darkreader-inline-fill=""
       fill="#9cb2c5"
       id="path40" />
    <path
       d="m 159.74,289.81 a 55.73,55.73 0 0 0 -4.39,-6.67 81.9,81.9 0 0 0 38.26,20.6 v 0.12 c -5.89,-1 -12.72,-3.77 -18.67,-6.82 -5.95,-3.05 -11.17,-6.24 -15.2,-7.23"
       data-darkreader-inline-fill=""
       fill="#9cb2c5"
       id="path42" />
    <path
       d="m 287,266.92 a 8.93,8.93 0 0 1 0.11,-0.93 v 0 a 2.59,2.59 0 0 1 -0.14,1"
       data-darkreader-inline-fill=""
       fill="#9cb2c5"
       id="path44" />
    <path
       d="m 123.05,279.94 -0.93,-1.53 a 122.38,122.38 0 0 0 8.43,10.78 57.38,57.38 0 0 1 -7.5,-9.25"
       data-darkreader-inline-fill=""
       fill="#9cb2c5"
       id="path46" />
    <path
       d="M 108.29,233.8 A 102.43,102.43 0 0 1 108.58,206.15 81.66,81.66 0 0 1 122,174.56 104.14,104.14 0 0 0 108.29,233.8"
       data-darkreader-inline-fill=""
       fill="#9cb2c5"
       id="path48" />
    <path
       d="m 141.56,267.89 a 67.07,67.07 0 0 1 -3.1,-8.7 76.58,76.58 0 0 0 4.19,8 c -0.62,-0.28 -0.8,0.4 -1.09,0.66"
       data-darkreader-inline-fill=""
       fill="#9cb2c5"
       id="path50" />
    <path
       d="m 149.83,306.79 -2.22,-1.65 c 2.08,1.18 4.19,2.29 6.34,3.29 -0.85,-0.26 -2.74,-1.1 -4.12,-1.64"
       data-darkreader-inline-fill=""
       fill="#9cb2c5"
       id="path52" />
    <path
       d="m 132.39,237.05 q 0.36,3.28 1,6.53 c -0.55,-1.22 -1.13,-2.41 -1.82,-3.61 a 9.66,9.66 0 0 0 0.78,-2.92"
       data-darkreader-inline-fill=""
       fill="#9cb2c5"
       id="path54" />
    <path
       d="m 133.54,203.26 a 56.27,56.27 0 0 1 2.89,-8.24 90.22,90.22 0 0 0 -2.73,10.14 c -0.19,-0.86 -0.36,-1.56 -0.16,-1.9"
       data-darkreader-inline-fill=""
       fill="#9cb2c5"
       id="path56" />
    <path
       d="m 160.05,65 a 86.36,86.36 0 0 1 24.4,16 94.92,94.92 0 0 1 17.43,22 93.18,93.18 0 0 0 -12.88,-17.22 74.62,74.62 0 0 1 9.32,12.15 77,77 0 0 1 6.68,13.92 56.48,56.48 0 0 1 -3.35,-5.71 c -1.17,-2 -2.39,-3.87 -3.32,-4.29 a 101.17,101.17 0 0 0 -25.67,-28.52 94.64,94.64 0 0 0 -34.78,-16.49 23.48,23.48 0 0 1 12.75,2.84 c 3.41,1.78 6.17,3.89 9.42,5.36"
       data-darkreader-inline-fill=""
       fill="#53cee8"
       id="path58" />
    <path
       d="m 211,139.82 c -0.29,-2.57 -0.66,-5 -1.11,-7.49 a 40.05,40.05 0 0 1 1.11,7.49"
       data-darkreader-inline-fill=""
       fill="#53cee8"
       id="path60" />
    <path
       d="m 39.58,137.1 c -0.22,2.64 -0.33,5.29 -0.41,7.85 a 41.47,41.47 0 0 1 0.41,-7.85"
       data-darkreader-inline-fill=""
       fill="#53cee8"
       id="path62" />
    <path
       d="m 126.57,62.68 -4.44,0.31 a 88.71,88.71 0 0 0 -33.55,5 102.56,102.56 0 0 1 18.68,-5.16 57.46,57.46 0 0 1 19.31,-0.14"
       data-darkreader-inline-fill=""
       fill="#53cee8"
       id="path64" />
    <path
       d="M 138.06,66.76 A 63.87,63.87 0 0 1 167.23,81 70.88,70.88 0 0 0 138.06,66.77"
       data-darkreader-inline-fill=""
       fill="#53cee8"
       id="path66" />
    <path
       d="m 75.4,199.88 c 0.12,-0.19 0.36,-0.2 0.64,-0.14 a 2.07,2.07 0 0 0 0.72,0.25 73.37,73.37 0 0 0 8.24,7.13 20.93,20.93 0 0 1 -2.57,-1 26.87,26.87 0 0 1 -3.26,-3.22 17.66,17.66 0 0 0 -3.8,-3"
       data-darkreader-inline-fill=""
       fill="#53cee8"
       id="path68" />
    <path
       d="m 40,134.17 -0.07,-0.29 c 0.12,-0.9 0.22,-1.8 0.37,-2.68 l 0.13,-0.31 c -0.13,1.1 -0.27,2.19 -0.43,3.28"
       data-darkreader-inline-fill=""
       fill="#53cee8"
       id="path70" />
    <path
       d="m 72.1,196.6 a 2.08,2.08 0 0 0 0.53,-1.14 c 1.3,1.55 2.66,3 4.1,4.5 a 4.92,4.92 0 0 0 -0.69,-0.22 c -1.23,-0.66 -2.48,-2.44 -3.94,-3.14"
       data-darkreader-inline-fill=""
       fill="#53cee8"
       id="path72" />
    <path
       d="m 56.06,154.79 a 9.43,9.43 0 0 0 -1.31,-2.9 c 0.41,-3.31 1,-6.55 1.78,-10.27 -0.16,-0.62 0,-1.85 -0.28,-3.08 a 23,23 0 0 0 1.28,-2 68.56,68.56 0 0 0 -0.39,25.46 41.94,41.94 0 0 1 -1.08,-7.24"
       data-darkreader-inline-fill=""
       fill="#53cee8"
       id="path74" />
    <path
       d="m 197.06,143.16 a 60.85,60.85 0 0 1 -1.58,20.72 c -1.6,6.91 -3.94,13.47 -5.86,19.79 4.15,-6.49 7.47,-15.2 9.34,-22.65 1.87,-7.45 2.76,-13.6 4.58,-14.88 1.82,-1.28 2.33,4.47 1.11,12.08 a 78.09,78.09 0 0 1 -2.94,11.94 c -1.28,4 -2.78,7.65 -4,10.65 1,-1.43 1,-1.43 2,-2.91 a 11.78,11.78 0 0 0 -2.18,4.48 58.4,58.4 0 0 0 3.55,-5.73 26.28,26.28 0 0 1 3.12,-4.84 c 0,1.09 0,2.19 -0.06,3.3 2.73,-3.93 5.15,-10.32 6.67,-17 1.52,-6.68 2.22,-13.6 3.11,-18.59 a 127.78,127.78 0 0 1 -8.53,36.92 102.85,102.85 0 0 1 -22.13,34 A 92.8,92.8 0 0 1 147.69,233 88.05,88.05 0 0 1 106,237 102.56,102.56 0 0 1 32.15,190.51 60.07,60.07 0 0 1 27.23,178.76 86.37,86.37 0 0 1 23.96,163.4 108.9,108.9 0 0 1 26.73,112.89 91.17,91.17 0 0 1 58.34,69.25 105.18,105.18 0 0 1 110.23,48.79 c 3.86,-0.47 8.5,0.29 9.71,1.34 0.62,0.51 0.4,1.06 -1.12,1.57 a 70.35,70.35 0 0 1 -8.82,1.75 113.27,113.27 0 0 0 -41.7,17 c 0.41,-1 2.22,-2.31 4.3,-3.61 a 61.7,61.7 0 0 0 5.74,-3.72 79.59,79.59 0 0 0 -14.06,7.59 78.18,78.18 0 0 0 -12.12,10.2 96.75,96.75 0 0 1 17.26,-14.16 98.37,98.37 0 0 0 -21.9,19 89.43,89.43 0 0 0 -15.45,26 c -1.38,3.43 -3.39,6.4 -5.05,10 A 24.86,24.86 0 0 0 24.67,135.06 97.74,97.74 0 0 1 40,98.31 104.34,104.34 0 0 1 68.31,70.4 0.61,0.61 0 0 0 68.24,70.54 91.25,91.25 0 0 1 99.31,57.05 c -3.44,1 -6.84,2.18 -9.86,3 A 103.21,103.21 0 0 1 137.94,57.88 108.41,108.41 0 0 0 103.48,59.73 96.89,96.89 0 0 0 71.14,73.24 90.82,90.82 0 0 0 46.05,97.72 83.58,83.58 0 0 0 32.84,129.3 c 2.28,-6 4.38,-12.88 7.36,-19.34 2.98,-6.46 6.73,-12.35 11,-15.85 a 91.67,91.67 0 0 0 -19.73,57 l -0.51,-4.6 a 60.35,60.35 0 0 0 1.07,20 105.09,105.09 0 0 0 6.23,19.12 c 0.45,1.09 0.9,2.17 1.4,3.24 l -1.4,-3.24 a 91.64,91.64 0 0 1 -6.79,-34.52 c 0.6,5.28 1.18,10.83 2.41,17.43 0,-3.7 -0.57,-8.86 -0.55,-14 a 83.56,83.56 0 0 1 1.23,-20.12 69.33,69.33 0 0 0 1.72,29.46 c -1.66,-13.64 -0.66,-28 4,-40.88 a 83.29,83.29 0 0 0 -3.51,22 82.49,82.49 0 0 0 5.81,37.22 L 42,180.88 c 0.37,0.9 0.79,1.79 1.2,2.69 a 82.1,82.1 0 0 0 7.27,13.32 48.5,48.5 0 0 0 9.33,9.69 l 1.57,1.57 c -1.23,-0.75 -2,-1 -0.19,1.1 a 56,56 0 0 0 14.24,11.49 c 5.46,3.26 11.36,6 17.53,8.92 a 44,44 0 0 0 13.05,3.22 4.1,4.1 0 0 0 2.8,0.25 c 1.11,0.09 2.24,0.15 3.36,0.2 a 45.54,45.54 0 0 0 8.17,0.07 c -2.66,0 -5.42,0 -8.17,-0.07 l -3.06,-0.27 a 6.79,6.79 0 0 1 3,-0.37 84,84 0 0 1 -27.23,-7.91 89.56,89.56 0 0 1 -23.59,-16.63 c 1,0.61 2.43,1.53 3.07,1.83 -1.59,-1.06 -3.12,-2.21 -4.64,-3.4 A 93.38,93.38 0 0 1 48,191.82 23.17,23.17 0 0 0 51.55,195.64 88.8,88.8 0 0 1 40.26,171.54 87,87 0 0 1 36.77,145 83.91,83.91 0 0 1 54.68,99.27 66,66 0 0 0 40.29,122.94 81.2,81.2 0 0 1 59.53,90 77.17,77.17 0 0 1 91.78,69.91 c -3.88,2.76 -9,6.32 -10.53,9.2 0.54,0.54 7.53,-2.62 3.76,-0.18 -6.67,4.7 -12.05,8.9 -16,13 -3.95,4.1 -6.36,8 -6.41,11.84 0.14,0.84 3.69,-1.4 7,-2.79 3.31,-1.39 6.12,-2.14 4.62,-0.1 a 81.84,81.84 0 0 0 -11,16.16 48,48 0 0 0 -3.31,6.3 2.84,2.84 0 0 0 -0.11,1.54 84.14,84.14 0 0 0 -4.5,20.61 c -0.2,1.67 -0.3,3.33 -0.35,5 a 8.4,8.4 0 0 1 -0.93,2.26 c 0.39,1.05 0.72,2.09 1,3.12 a 60.65,60.65 0 0 0 2.18,13.13 54.76,54.76 0 0 0 1.52,7.37 c 0.25,-0.17 0.45,-0.7 0.9,-0.39 a 63.76,63.76 0 0 0 8.38,14.38 46.17,46.17 0 0 1 2.81,5.84 c 3.08,1.32 6.85,4.57 11.33,7.7 a 57.45,57.45 0 0 0 14.24,7.71 v -0.08 a 69.47,69.47 0 0 0 14.22,3.88 21.27,21.27 0 0 1 2.22,1.19 c 1.29,-0.3 2.58,-0.22 3.22,-0.41 4,0.6 7.37,1.07 10.87,1.32 a 9.68,9.68 0 0 1 3,-1.46 45.83,45.83 0 0 0 7.53,-1.47 76.46,76.46 0 0 0 8.51,-2.44 74,74 0 0 0 25.74,-15.48 2.3,2.3 0 0 1 1.2,0.44 c 0.68,-1.53 2.46,-2.93 3.1,-4.25 -0.06,0.3 0,0.54 0.17,0.64 a 19.76,19.76 0 0 1 3,-4.11 28.62,28.62 0 0 0 3.18,-3.59 17.14,17.14 0 0 0 0.91,-2.7 c 0.27,-0.39 0.52,-0.79 0.77,-1.18 3.9,-3.43 5.25,-8.31 6.75,-13.49 a 73,73 0 0 0 4.06,-16 c 0.51,-4.36 1.65,-6.09 2.24,-9.28"
       data-darkreader-inline-fill=""
       fill="#53cee8"
       id="path76" />
    <path
       d="M 86.11,207.89 A 70.3,70.3 0 0 0 98.67,215 c -4.88,-1.66 -9.5,-3.13 -12.56,-7.08"
       data-darkreader-inline-fill=""
       fill="#53cee8"
       id="path78" />
    <path
       d="m 77.47,99.41 a 40.91,40.91 0 0 0 5.72,-2.35 63.53,63.53 0 0 0 -21.35,26.08 h -0.09 a 54.61,54.61 0 0 1 8,-13.2 c 3.17,-4.14 6.41,-7.59 7.76,-10.51"
       data-darkreader-inline-fill=""
       fill="#53cee8"
       id="path80" />
    <path
       d="m 76,199.74 a 6.5,6.5 0 0 1 0.69,0.21 v 0 a 2.07,2.07 0 0 1 -0.72,-0.25"
       data-darkreader-inline-fill=""
       fill="#53cee8"
       id="path82" />
    <path
       d="m 90.41,72.94 1.31,-0.48 a 93.24,93.24 0 0 0 -9.45,4.82 44.27,44.27 0 0 1 8.14,-4.34"
       data-darkreader-inline-fill=""
       fill="#53cee8"
       id="path84" />
    <path
       d="m 127.73,68.53 a 79.51,79.51 0 0 1 21,4.32 63.37,63.37 0 0 1 22.06,14.9 80.85,80.85 0 0 0 -43.08,-19.22"
       data-darkreader-inline-fill=""
       fill="#53cee8"
       id="path86" />
    <path
       d="m 96.85,88.81 a 52.57,52.57 0 0 1 7.08,-1.06 60,60 0 0 0 -6.74,2 C 97.5,89.32 97,89.08 96.85,88.82"
       data-darkreader-inline-fill=""
       fill="#53cee8"
       id="path88" />
    <path
       d="m 66,89.35 1.58,-1.45 c -1.2,1.42 -2.36,2.85 -3.45,4.34 0.33,-0.61 1.25,-1.92 1.87,-2.89"
       data-darkreader-inline-fill=""
       fill="#53cee8"
       id="path90" />
    <path
       d="m 121.69,86.4 c -1.7,-0.14 -3.41,-0.2 -5.11,-0.17 1,-0.24 2,-0.51 3,-0.86 a 7.34,7.34 0 0 0 2.1,1"
       data-darkreader-inline-fill=""
       fill="#53cee8"
       id="path92" />
    <path
       d="m 147.25,92.28 a 42.6,42.6 0 0 1 5.85,3.43 67.87,67.87 0 0 0 -7.32,-3.58 c 0.68,0 1.25,0 1.47,0.15"
       data-darkreader-inline-fill=""
       fill="#53cee8"
       id="path94" />
  </g>
</svg>
